<?xml version="1.0" encoding="UTF-8"?>
<!DOCTYPE svg PUBLIC "-//W3C//DTD SVG 1.1//EN" "http://www.w3.org/Graphics/SVG/1.1/DTD/svg11.dtd">
<svg xmlns="http://www.w3.org/2000/svg" version="1.1" width="500px" height="500px" style="shape-rendering:geometricPrecision; text-rendering:geometricPrecision; image-rendering:optimizeQuality; fill-rule:evenodd; clip-rule:evenodd" xmlns:xlink="http://www.w3.org/1999/xlink">
<g><path style="opacity:0.942" fill="#fcfdfc" d="M 297.5,98.5 C 317.836,98.3334 338.169,98.5 358.5,99C 370.552,102.733 375.719,110.9 374,123.5C 348.52,169.792 322.52,215.792 296,261.5C 282.695,273.726 269.695,273.393 257,260.5C 250.505,248.172 243.505,236.172 236,224.5C 229,236.833 222,249.167 215,261.5C 212.408,264.762 209.241,267.262 205.5,269C 184.551,270.621 163.551,270.954 142.5,270C 133.14,268.309 127.307,262.809 125,253.5C 124.133,248.303 124.8,243.303 127,238.5C 143.919,209.663 160.586,180.663 177,151.5C 186.665,141.701 197.498,140.201 209.5,147C 212.04,149.205 214.207,151.705 216,154.5C 222.329,166.495 229.162,178.162 236.5,189.5C 252.866,161.629 269.033,133.629 285,105.5C 288.739,102.219 292.905,99.8852 297.5,98.5 Z M 298.5,114.5 C 316.836,114.333 335.17,114.5 353.5,115C 355.513,115.68 356.846,117.013 357.5,119C 332.427,163.813 307.093,208.48 281.5,253C 276.498,255.601 272.665,254.434 270,249.5C 261.779,235.559 253.946,221.392 246.5,207C 263.724,176.047 281.057,145.214 298.5,114.5 Z M 192.5,159.5 C 196.639,158.704 199.805,160.037 202,163.5C 210.42,178.005 218.587,192.672 226.5,207.5C 217.879,223.246 208.879,238.746 199.5,254C 181.5,254.667 163.5,254.667 145.5,254C 142.42,252.289 141.254,249.789 142,246.5C 158.34,217.145 175.173,188.145 192.5,159.5 Z"/></g>
<g><path style="opacity:0.93" fill="#fcfdfc" d="M 75.5,311.5 C 84.6892,317.509 93.1892,324.509 101,332.5C 101.5,325.842 101.666,319.175 101.5,312.5C 105.437,312.207 109.27,312.54 113,313.5C 113.5,327.829 113.667,342.163 113.5,356.5C 112.127,356.657 110.793,356.49 109.5,356C 102,349.167 94.5,342.333 87,335.5C 86.5004,342.158 86.3337,348.825 86.5,355.5C 82.8333,355.5 79.1667,355.5 75.5,355.5C 75.5,340.833 75.5,326.167 75.5,311.5 Z"/></g>
<g><path style="opacity:0.915" fill="#fcfdfc" d="M 142.5,311.5 C 143.822,311.33 144.989,311.663 146,312.5C 153.066,326.628 159.566,340.961 165.5,355.5C 161.116,355.826 156.783,355.492 152.5,354.5C 152.167,353.833 151.833,353.167 151.5,352.5C 146.544,351.506 141.544,351.173 136.5,351.5C 136.67,352.822 136.337,353.989 135.5,355C 131.179,355.499 126.846,355.666 122.5,355.5C 128.615,340.602 135.282,325.935 142.5,311.5 Z M 143.5,333.5 C 144.93,336.197 146.263,339.031 147.5,342C 145.167,342.667 142.833,342.667 140.5,342C 141.929,339.31 142.929,336.477 143.5,333.5 Z"/></g>
<g><path style="opacity:0.915" fill="#fcfdfc" d="M 280.5,311.5 C 281.675,311.281 282.675,311.614 283.5,312.5C 290.167,326.5 296.833,340.5 303.5,354.5C 298.88,355.493 294.214,355.827 289.5,355.5C 289.67,354.178 289.337,353.011 288.5,352C 283.833,351.333 279.167,351.333 274.5,352C 273.663,353.011 273.33,354.178 273.5,355.5C 269.167,355.5 264.833,355.5 260.5,355.5C 266.2,340.403 272.867,325.737 280.5,311.5 Z M 280.5,334.5 C 282.837,336.507 284.171,339.173 284.5,342.5C 282.396,342.799 280.396,342.466 278.5,341.5C 279.577,339.271 280.244,336.937 280.5,334.5 Z"/></g>
<g><path style="opacity:0.914" fill="#fcfdfc" d="M 312.5,311.5 C 313.552,311.351 314.552,311.517 315.5,312C 322.705,318.873 330.205,325.373 338,331.5C 338.333,325.5 338.667,319.5 339,313.5C 342.73,312.54 346.563,312.207 350.5,312.5C 350.5,327.167 350.5,341.833 350.5,356.5C 349.127,356.657 347.793,356.49 346.5,356C 339.333,349.5 332.167,343 325,336.5C 324.5,342.825 324.334,349.158 324.5,355.5C 320.5,355.5 316.5,355.5 312.5,355.5C 312.5,340.833 312.5,326.167 312.5,311.5 Z"/></g>
<g><path style="opacity:0.916" fill="#fcfdfc" d="M 404.5,311.5 C 405.675,311.281 406.675,311.614 407.5,312.5C 414.167,326.5 420.833,340.5 427.5,354.5C 423.205,355.661 418.871,355.828 414.5,355C 413.663,353.989 413.33,352.822 413.5,351.5C 408.456,351.173 403.456,351.506 398.5,352.5C 398.167,353.167 397.833,353.833 397.5,354.5C 393.217,355.492 388.884,355.826 384.5,355.5C 390.615,340.602 397.282,325.935 404.5,311.5 Z M 405.5,334.5 C 406.914,336.867 408.248,339.367 409.5,342C 407.098,342.814 404.765,342.647 402.5,341.5C 403.702,339.22 404.702,336.886 405.5,334.5 Z"/></g>
<g><path style="opacity:0.915" fill="#fcfdfc" d="M 171.5,312.5 C 181.839,312.334 192.172,312.5 202.5,313C 206.16,322.159 203.16,325.659 193.5,323.5C 193.5,334.167 193.5,344.833 193.5,355.5C 189.5,355.5 185.5,355.5 181.5,355.5C 181.5,344.833 181.5,334.167 181.5,323.5C 178.223,323.784 175.057,323.451 172,322.5C 171.502,319.183 171.335,315.85 171.5,312.5 Z"/></g>
<g><path style="opacity:0.91" fill="#fcfdfc" d="M 213.5,312.5 C 217.167,312.5 220.833,312.5 224.5,312.5C 224.5,318.833 224.5,325.167 224.5,331.5C 229.167,331.5 233.833,331.5 238.5,331.5C 238.334,325.491 238.501,319.491 239,313.5C 242.744,312.374 246.577,312.207 250.5,313C 251.656,326.758 251.823,340.592 251,354.5C 246.934,355.464 242.767,355.797 238.5,355.5C 238.5,350.833 238.5,346.167 238.5,341.5C 233.833,341.5 229.167,341.5 224.5,341.5C 224.5,346.167 224.5,350.833 224.5,355.5C 220.5,355.5 216.5,355.5 212.5,355.5C 212.184,341.088 212.518,326.755 213.5,312.5 Z"/></g>
<g><path style="opacity:0.931" fill="#fcfdfc" d="M 363.5,312.5 C 367.5,312.5 371.5,312.5 375.5,312.5C 375.5,326.833 375.5,341.167 375.5,355.5C 371.5,355.5 367.5,355.5 363.5,355.5C 363.5,341.167 363.5,326.833 363.5,312.5 Z"/></g>
</svg>
